<svg id="visual" viewBox="0 0 900 600" width="900" height="600" xmlns="http://www.w3.org/2000/svg" xmlns:xlink="http://www.w3.org/1999/xlink" version="1.1"><g stroke-width="1" stroke-linejoin="bevel"><path d="M504.3 408L531.3 465L588.9 407Z" fill="#ff6f61" stroke="#ff6f61"></path><path d="M531.3 465L667.9 455L588.9 407Z" fill="#b24135" stroke="#b24135"></path><path d="M504.3 408L399.7 430L531.3 465Z" fill="#a3382d" stroke="#a3382d"></path><path d="M487.3 600L590.9 600L531.3 465Z" fill="#952f25" stroke="#952f25"></path><path d="M531.3 465L590.9 600L667.9 455Z" fill="#ef6658" stroke="#ef6658"></path><path d="M454.7 600L487.3 600L531.3 465Z" fill="#ff6f61" stroke="#ff6f61"></path><path d="M399.7 430L454.7 600L531.3 465Z" fill="#e05c4f" stroke="#e05c4f"></path><path d="M667.9 455L705.4 297L588.9 407Z" fill="#87271d" stroke="#87271d"></path><path d="M588.9 407L530.3 208L504.3 408Z" fill="#791e16" stroke="#791e16"></path><path d="M504.3 408L530.3 208L399.7 430Z" fill="#ff6f61" stroke="#ff6f61"></path><path d="M599.9 209L530.3 208L588.9 407Z" fill="#b24135" stroke="#b24135"></path><path d="M705.4 297L599.9 209L588.9 407Z" fill="#d05346" stroke="#d05346"></path><path d="M271.1 323L323.7 422L399.7 430Z" fill="#ef6658" stroke="#ef6658"></path><path d="M399.7 430L278.1 518L454.7 600Z" fill="#ef6658" stroke="#ef6658"></path><path d="M853.4 435L747.4 262L705.4 297Z" fill="#b24135" stroke="#b24135"></path><path d="M705.4 297L747.4 262L599.9 209Z" fill="#c14a3d" stroke="#c14a3d"></path><path d="M323.7 422L278.1 518L399.7 430Z" fill="#c14a3d" stroke="#c14a3d"></path><path d="M530.3 208L271.1 323L399.7 430Z" fill="#6b150e" stroke="#6b150e"></path><path d="M323.7 422L155.6 476L278.1 518Z" fill="#d05346" stroke="#d05346"></path><path d="M590.9 600L795.4 600L667.9 455Z" fill="#d05346" stroke="#d05346"></path><path d="M667.9 455L853.4 435L705.4 297Z" fill="#87271d" stroke="#87271d"></path><path d="M795.4 600L853.4 435L667.9 455Z" fill="#d05346" stroke="#d05346"></path><path d="M900 173L700.4 138L747.4 262Z" fill="#87271d" stroke="#87271d"></path><path d="M747.4 262L700.4 138L599.9 209Z" fill="#ef6658" stroke="#ef6658"></path><path d="M599.9 209L523.3 36L530.3 208Z" fill="#87271d" stroke="#87271d"></path><path d="M155.6 476L270.1 600L278.1 518Z" fill="#e05c4f" stroke="#e05c4f"></path><path d="M278.1 518L270.1 600L454.7 600Z" fill="#e05c4f" stroke="#e05c4f"></path><path d="M530.3 208L304.7 178L271.1 323Z" fill="#d05346" stroke="#d05346"></path><path d="M302.7 132L304.7 178L530.3 208Z" fill="#6b150e" stroke="#6b150e"></path><path d="M900 600L900 442L853.4 435Z" fill="#e05c4f" stroke="#e05c4f"></path><path d="M853.4 435L900 321L747.4 262Z" fill="#ff6f61" stroke="#ff6f61"></path><path d="M900 442L900 321L853.4 435Z" fill="#c14a3d" stroke="#c14a3d"></path><path d="M302.7 132L269.1 181L304.7 178Z" fill="#e05c4f" stroke="#e05c4f"></path><path d="M304.7 178L269.1 181L271.1 323Z" fill="#952f25" stroke="#952f25"></path><path d="M271.1 323L155.6 476L323.7 422Z" fill="#791e16" stroke="#791e16"></path><path d="M242.1 194L191.6 305L271.1 323Z" fill="#e05c4f" stroke="#e05c4f"></path><path d="M523.3 36L302.7 132L530.3 208Z" fill="#952f25" stroke="#952f25"></path><path d="M184.6 56L242.1 194L269.1 181Z" fill="#6b150e" stroke="#6b150e"></path><path d="M269.1 181L242.1 194L271.1 323Z" fill="#c14a3d" stroke="#c14a3d"></path><path d="M900 98L697.9 67L700.4 138Z" fill="#b24135" stroke="#b24135"></path><path d="M700.4 138L697.9 67L599.9 209Z" fill="#6b150e" stroke="#6b150e"></path><path d="M697.9 67L523.3 36L599.9 209Z" fill="#ff6f61" stroke="#ff6f61"></path><path d="M191.6 305L155.6 476L271.1 323Z" fill="#ef6658" stroke="#ef6658"></path><path d="M795.4 600L900 600L853.4 435Z" fill="#a3382d" stroke="#a3382d"></path><path d="M682.9 0L469.3 0L523.3 36Z" fill="#791e16" stroke="#791e16"></path><path d="M523.3 36L467.7 0L302.7 132Z" fill="#d05346" stroke="#d05346"></path><path d="M469.3 0L467.7 0L523.3 36Z" fill="#a3382d" stroke="#a3382d"></path><path d="M900 321L900 173L747.4 262Z" fill="#791e16" stroke="#791e16"></path><path d="M851.4 0L682.9 0L697.9 67Z" fill="#e05c4f" stroke="#e05c4f"></path><path d="M697.9 67L682.9 0L523.3 36Z" fill="#ff6f61" stroke="#ff6f61"></path><path d="M467.7 0L328.1 0L302.7 132Z" fill="#87271d" stroke="#87271d"></path><path d="M302.7 132L184.6 56L269.1 181Z" fill="#d05346" stroke="#d05346"></path><path d="M0 171L43.6 319L191.6 305Z" fill="#a3382d" stroke="#a3382d"></path><path d="M900 173L900 98L700.4 138Z" fill="#b24135" stroke="#b24135"></path><path d="M0 171L191.6 305L242.1 194Z" fill="#a3382d" stroke="#a3382d"></path><path d="M191.6 305L43.6 319L155.6 476Z" fill="#b24135" stroke="#b24135"></path><path d="M328.1 0L184.6 56L302.7 132Z" fill="#ff6f61" stroke="#ff6f61"></path><path d="M900 98L851.4 0L697.9 67Z" fill="#ef6658" stroke="#ef6658"></path><path d="M0 435L52.6 600L155.6 476Z" fill="#952f25" stroke="#952f25"></path><path d="M155.6 476L52.6 600L270.1 600Z" fill="#d05346" stroke="#d05346"></path><path d="M0 396L0 435L155.6 476Z" fill="#6b150e" stroke="#6b150e"></path><path d="M0 171L0 396L43.6 319Z" fill="#b24135" stroke="#b24135"></path><path d="M43.6 319L0 396L155.6 476Z" fill="#ff6f61" stroke="#ff6f61"></path><path d="M900 98L900 0L851.4 0Z" fill="#c14a3d" stroke="#c14a3d"></path><path d="M0 435L0 600L52.6 600Z" fill="#ef6658" stroke="#ef6658"></path><path d="M0 158L0 171L242.1 194Z" fill="#791e16" stroke="#791e16"></path><path d="M328.1 0L116.6 0L184.6 56Z" fill="#b24135" stroke="#b24135"></path><path d="M184.6 56L0 158L242.1 194Z" fill="#e05c4f" stroke="#e05c4f"></path><path d="M116.6 0L0 158L184.6 56Z" fill="#ef6658" stroke="#ef6658"></path><path d="M116.6 0L0 0L0 158Z" fill="#ef6658" stroke="#ef6658"></path></g></svg>