<svg id="visual" viewBox="0 0 900 600" width="900" height="600" xmlns="http://www.w3.org/2000/svg" xmlns:xlink="http://www.w3.org/1999/xlink" version="1.1"><g stroke-width="1" stroke-linejoin="bevel"><path d="M461.6 281.7L473.4 340L527.8 269.3Z" fill="#c14a3d" stroke="#c14a3d"></path><path d="M473.4 340L550.8 348.7L527.8 269.3Z" fill="#d05346" stroke="#d05346"></path><path d="M473.4 340L513.6 378L550.8 348.7Z" fill="#b24135" stroke="#b24135"></path><path d="M550.8 348.7L580.1 312.3L527.8 269.3Z" fill="#87271d" stroke="#87271d"></path><path d="M550.8 348.7L599.1 333.7L580.1 312.3Z" fill="#791e16" stroke="#791e16"></path><path d="M626.1 342L599.1 333.7L550.8 348.7Z" fill="#87271d" stroke="#87271d"></path><path d="M461.6 281.7L413.6 361.3L473.4 340Z" fill="#ef6658" stroke="#ef6658"></path><path d="M473.4 340L440.4 396.7L513.6 378Z" fill="#a3382d" stroke="#a3382d"></path><path d="M413.6 361.3L440.4 396.7L473.4 340Z" fill="#a3382d" stroke="#a3382d"></path><path d="M509.8 150.3L405.4 226.7L461.6 281.7Z" fill="#6b150e" stroke="#6b150e"></path><path d="M461.6 281.7L372.2 280L413.6 361.3Z" fill="#e05c4f" stroke="#e05c4f"></path><path d="M405.4 226.7L372.2 280L461.6 281.7Z" fill="#ef6658" stroke="#ef6658"></path><path d="M586.1 494.7L626.1 342L550.8 348.7Z" fill="#952f25" stroke="#952f25"></path><path d="M599.1 333.7L626.1 342L580.1 312.3Z" fill="#c14a3d" stroke="#c14a3d"></path><path d="M623.1 212.3L601.8 195L527.8 269.3Z" fill="#d05346" stroke="#d05346"></path><path d="M345.4 299.3L361.2 292.3L319.9 257.7Z" fill="#b24135" stroke="#b24135"></path><path d="M372.2 280L361.2 292.3L413.6 361.3Z" fill="#d05346" stroke="#d05346"></path><path d="M439.4 495.3L505.8 463L440.4 396.7Z" fill="#d05346" stroke="#d05346"></path><path d="M457.4 135L391.2 206.7L405.4 226.7Z" fill="#952f25" stroke="#952f25"></path><path d="M405.4 226.7L391.2 206.7L372.2 280Z" fill="#a3382d" stroke="#a3382d"></path><path d="M623.1 212.3L527.8 269.3L580.1 312.3Z" fill="#b24135" stroke="#b24135"></path><path d="M527.8 269.3L509.8 150.3L461.6 281.7Z" fill="#87271d" stroke="#87271d"></path><path d="M626.1 342L623.1 212.3L580.1 312.3Z" fill="#a3382d" stroke="#a3382d"></path><path d="M601.8 195L509.8 150.3L527.8 269.3Z" fill="#791e16" stroke="#791e16"></path><path d="M319.9 257.7L361.2 292.3L372.2 280Z" fill="#791e16" stroke="#791e16"></path><path d="M361.2 292.3L345.4 299.3L413.6 361.3Z" fill="#b24135" stroke="#b24135"></path><path d="M440.4 396.7L505.8 463L513.6 378Z" fill="#ff6f61" stroke="#ff6f61"></path><path d="M513.6 378L586.1 494.7L550.8 348.7Z" fill="#ef6658" stroke="#ef6658"></path><path d="M735.3 394L660.3 338.3L649.3 509.7Z" fill="#a3382d" stroke="#a3382d"></path><path d="M626.1 342L660.3 338.3L623.1 212.3Z" fill="#791e16" stroke="#791e16"></path><path d="M481.6 112.7L488.4 133.7L482.6 104.3Z" fill="#b24135" stroke="#b24135"></path><path d="M509.8 150.3L457.4 135L405.4 226.7Z" fill="#87271d" stroke="#87271d"></path><path d="M488.4 133.7L457.4 135L509.8 150.3Z" fill="#a3382d" stroke="#a3382d"></path><path d="M623.1 212.3L587.1 150L601.8 195Z" fill="#b24135" stroke="#b24135"></path><path d="M601.8 195L587.1 150L509.8 150.3Z" fill="#87271d" stroke="#87271d"></path><path d="M484.8 499.7L520.6 481.7L505.8 463Z" fill="#d05346" stroke="#d05346"></path><path d="M505.8 463L586.1 494.7L513.6 378Z" fill="#952f25" stroke="#952f25"></path><path d="M484.8 499.7L505.8 463L439.4 495.3Z" fill="#952f25" stroke="#952f25"></path><path d="M391.2 206.7L319.9 257.7L372.2 280Z" fill="#d05346" stroke="#d05346"></path><path d="M339.4 110.3L319.9 257.7L391.2 206.7Z" fill="#6b150e" stroke="#6b150e"></path><path d="M488.4 133.7L481.6 112.7L457.4 135Z" fill="#6b150e" stroke="#6b150e"></path><path d="M457.4 135L339.4 110.3L391.2 206.7Z" fill="#c14a3d" stroke="#c14a3d"></path><path d="M482.6 104.3L488.4 133.7L509.8 150.3Z" fill="#c14a3d" stroke="#c14a3d"></path><path d="M481.6 112.7L454.6 116L457.4 135Z" fill="#952f25" stroke="#952f25"></path><path d="M439.4 495.3L440.4 396.7L360.2 462.3Z" fill="#87271d" stroke="#87271d"></path><path d="M360.2 462.3L440.4 396.7L413.6 361.3Z" fill="#6b150e" stroke="#6b150e"></path><path d="M298.2 350L413.6 361.3L345.4 299.3Z" fill="#c14a3d" stroke="#c14a3d"></path><path d="M571.1 74.7L482.6 104.3L509.8 150.3Z" fill="#87271d" stroke="#87271d"></path><path d="M481.6 112.7L482.6 104.3L454.6 116Z" fill="#952f25" stroke="#952f25"></path><path d="M439.4 495.3L480.6 508.3L484.8 499.7Z" fill="#ef6658" stroke="#ef6658"></path><path d="M484.8 499.7L480.6 508.3L520.6 481.7Z" fill="#d05346" stroke="#d05346"></path><path d="M319.9 257.7L298.2 350L345.4 299.3Z" fill="#87271d" stroke="#87271d"></path><path d="M555.1 600L586.1 494.7L520.6 481.7Z" fill="#6b150e" stroke="#6b150e"></path><path d="M520.6 481.7L586.1 494.7L505.8 463Z" fill="#b24135" stroke="#b24135"></path><path d="M328.9 444.7L360.2 462.3L413.6 361.3Z" fill="#e05c4f" stroke="#e05c4f"></path><path d="M298.2 350L328.9 444.7L413.6 361.3Z" fill="#ef6658" stroke="#ef6658"></path><path d="M231.9 342.3L287.9 382L298.2 350Z" fill="#952f25" stroke="#952f25"></path><path d="M298.2 350L287.9 382L328.9 444.7Z" fill="#b24135" stroke="#b24135"></path><path d="M678.3 25.7L571.1 74.7L587.1 150Z" fill="#a3382d" stroke="#a3382d"></path><path d="M587.1 150L571.1 74.7L509.8 150.3Z" fill="#b24135" stroke="#b24135"></path><path d="M735.3 394L749.5 323L660.3 338.3Z" fill="#b24135" stroke="#b24135"></path><path d="M660.3 338.3L761.5 291.7L623.1 212.3Z" fill="#c14a3d" stroke="#c14a3d"></path><path d="M623.1 212.3L751.3 176.3L587.1 150Z" fill="#87271d" stroke="#87271d"></path><path d="M649.3 509.7L660.3 338.3L626.1 342Z" fill="#d05346" stroke="#d05346"></path><path d="M376.2 52.7L454.6 116L446.4 0Z" fill="#791e16" stroke="#791e16"></path><path d="M376.2 52.7L339.4 110.3L454.6 116Z" fill="#a3382d" stroke="#a3382d"></path><path d="M454.6 116L339.4 110.3L457.4 135Z" fill="#d05346" stroke="#d05346"></path><path d="M220.7 320.3L231.9 342.3L298.2 350Z" fill="#b24135" stroke="#b24135"></path><path d="M634.8 575.3L649.3 509.7L586.1 494.7Z" fill="#b24135" stroke="#b24135"></path><path d="M586.1 494.7L649.3 509.7L626.1 342Z" fill="#b24135" stroke="#b24135"></path><path d="M770.8 324.3L761.5 291.7L749.5 323Z" fill="#ef6658" stroke="#ef6658"></path><path d="M749.5 323L761.5 291.7L660.3 338.3Z" fill="#b24135" stroke="#b24135"></path><path d="M560.6 0L554.8 47.7L630.1 0Z" fill="#ef6658" stroke="#ef6658"></path><path d="M571.1 74.7L554.8 47.7L482.6 104.3Z" fill="#e05c4f" stroke="#e05c4f"></path><path d="M220.7 320.3L298.2 350L319.9 257.7Z" fill="#791e16" stroke="#791e16"></path><path d="M214.7 392.7L303.2 515.7L328.9 444.7Z" fill="#791e16" stroke="#791e16"></path><path d="M778.5 388.7L770.8 324.3L749.5 323Z" fill="#87271d" stroke="#87271d"></path><path d="M804.5 184L759.3 217.7L858.8 259Z" fill="#ff6f61" stroke="#ff6f61"></path><path d="M761.5 291.7L759.3 217.7L623.1 212.3Z" fill="#ef6658" stroke="#ef6658"></path><path d="M735.3 394L778.5 388.7L749.5 323Z" fill="#d05346" stroke="#d05346"></path><path d="M649.3 509.7L751.8 423L735.3 394Z" fill="#c14a3d" stroke="#c14a3d"></path><path d="M211.5 293.7L220.7 320.3L319.9 257.7Z" fill="#6b150e" stroke="#6b150e"></path><path d="M446.4 0L454.6 116L482.6 104.3Z" fill="#c14a3d" stroke="#c14a3d"></path><path d="M759.3 217.7L751.3 176.3L623.1 212.3Z" fill="#ff6f61" stroke="#ff6f61"></path><path d="M223.7 215.7L319.9 257.7L235.9 179Z" fill="#87271d" stroke="#87271d"></path><path d="M223.7 215.7L211.5 293.7L319.9 257.7Z" fill="#ff6f61" stroke="#ff6f61"></path><path d="M214.7 392.7L328.9 444.7L287.9 382Z" fill="#87271d" stroke="#87271d"></path><path d="M328.9 444.7L303.2 515.7L360.2 462.3Z" fill="#791e16" stroke="#791e16"></path><path d="M360.2 462.3L353.4 600L439.4 495.3Z" fill="#d05346" stroke="#d05346"></path><path d="M353.4 600L555.1 600L480.6 508.3Z" fill="#87271d" stroke="#87271d"></path><path d="M480.6 508.3L555.1 600L520.6 481.7Z" fill="#ff6f61" stroke="#ff6f61"></path><path d="M214.7 392.7L287.9 382L231.9 342.3Z" fill="#d05346" stroke="#d05346"></path><path d="M350.9 54.7L323.2 74.3L339.4 110.3Z" fill="#c14a3d" stroke="#c14a3d"></path><path d="M235.9 179L319.9 257.7L339.4 110.3Z" fill="#6b150e" stroke="#6b150e"></path><path d="M376.2 52.7L350.9 54.7L339.4 110.3Z" fill="#791e16" stroke="#791e16"></path><path d="M751.8 423L778.5 388.7L735.3 394Z" fill="#791e16" stroke="#791e16"></path><path d="M778.5 148.7L768.3 175L804.5 184Z" fill="#d05346" stroke="#d05346"></path><path d="M215.9 131.3L235.9 179L339.4 110.3Z" fill="#a3382d" stroke="#a3382d"></path><path d="M768.3 175L759.3 217.7L804.5 184Z" fill="#87271d" stroke="#87271d"></path><path d="M759.3 217.7L768.3 175L751.3 176.3Z" fill="#e05c4f" stroke="#e05c4f"></path><path d="M630.1 0L554.8 47.7L571.1 74.7Z" fill="#952f25" stroke="#952f25"></path><path d="M211.5 293.7L205.7 353L220.7 320.3Z" fill="#952f25" stroke="#952f25"></path><path d="M220.7 320.3L205.7 353L231.9 342.3Z" fill="#87271d" stroke="#87271d"></path><path d="M205.7 353L214.7 392.7L231.9 342.3Z" fill="#c14a3d" stroke="#c14a3d"></path><path d="M353.4 600L480.6 508.3L439.4 495.3Z" fill="#ff6f61" stroke="#ff6f61"></path><path d="M649.3 509.7L778.8 481.7L751.8 423Z" fill="#ef6658" stroke="#ef6658"></path><path d="M569.6 600L634.8 575.3L586.1 494.7Z" fill="#b24135" stroke="#b24135"></path><path d="M751.8 423L814.5 407.3L778.5 388.7Z" fill="#c14a3d" stroke="#c14a3d"></path><path d="M555.1 600L569.6 600L586.1 494.7Z" fill="#c14a3d" stroke="#c14a3d"></path><path d="M560.6 0L514.8 0L554.8 47.7Z" fill="#791e16" stroke="#791e16"></path><path d="M554.8 47.7L514.8 0L482.6 104.3Z" fill="#e05c4f" stroke="#e05c4f"></path><path d="M376.2 52.7L381.2 0L350.9 54.7Z" fill="#6b150e" stroke="#6b150e"></path><path d="M514.8 0L446.4 0L482.6 104.3Z" fill="#d05346" stroke="#d05346"></path><path d="M678.3 25.7L587.1 150L751.3 176.3Z" fill="#ff6f61" stroke="#ff6f61"></path><path d="M569.6 600L615.8 600L634.8 575.3Z" fill="#b24135" stroke="#b24135"></path><path d="M759.3 217.7L761.5 291.7L858.8 259Z" fill="#6b150e" stroke="#6b150e"></path><path d="M768.3 175L778.5 148.7L751.3 176.3Z" fill="#952f25" stroke="#952f25"></path><path d="M555.1 600L595.1 614.3L569.6 600Z" fill="#ff6f61" stroke="#ff6f61"></path><path d="M569.6 600L595.1 614.3L615.8 600Z" fill="#b24135" stroke="#b24135"></path><path d="M353.4 600L595.1 614.3L555.1 600Z" fill="#791e16" stroke="#791e16"></path><path d="M446.4 0L381.2 0L376.2 52.7Z" fill="#952f25" stroke="#952f25"></path><path d="M350.9 54.7L267.7 0L323.2 74.3Z" fill="#ff6f61" stroke="#ff6f61"></path><path d="M228.7 89.3L215.9 131.3L339.4 110.3Z" fill="#791e16" stroke="#791e16"></path><path d="M860.8 302.7L761.5 291.7L770.8 324.3Z" fill="#87271d" stroke="#87271d"></path><path d="M286.2 600L353.4 600L303.2 515.7Z" fill="#791e16" stroke="#791e16"></path><path d="M303.2 515.7L353.4 600L360.2 462.3Z" fill="#ef6658" stroke="#ef6658"></path><path d="M707.3 600L649.3 509.7L634.8 575.3Z" fill="#a3382d" stroke="#a3382d"></path><path d="M755.8 575.3L778.8 481.7L649.3 509.7Z" fill="#c14a3d" stroke="#c14a3d"></path><path d="M778.5 388.7L814.5 407.3L770.8 324.3Z" fill="#a3382d" stroke="#a3382d"></path><path d="M778.5 148.7L678.3 25.7L751.3 176.3Z" fill="#c14a3d" stroke="#c14a3d"></path><path d="M678.3 25.7L630.1 0L571.1 74.7Z" fill="#952f25" stroke="#952f25"></path><path d="M778.8 481.7L814.5 407.3L751.8 423Z" fill="#87271d" stroke="#87271d"></path><path d="M228.7 89.3L339.4 110.3L323.2 74.3Z" fill="#d05346" stroke="#d05346"></path><path d="M235.9 179L165.5 197L223.7 215.7Z" fill="#d05346" stroke="#d05346"></path><path d="M223.7 215.7L165.5 197L211.5 293.7Z" fill="#6b150e" stroke="#6b150e"></path><path d="M68.5 355L117.2 420L205.7 353Z" fill="#952f25" stroke="#952f25"></path><path d="M267.7 0L228.7 89.3L323.2 74.3Z" fill="#e05c4f" stroke="#e05c4f"></path><path d="M161.7 144L235.9 179L215.9 131.3Z" fill="#ff6f61" stroke="#ff6f61"></path><path d="M161.7 144L165.5 197L235.9 179Z" fill="#e05c4f" stroke="#e05c4f"></path><path d="M205.7 353L117.2 420L214.7 392.7Z" fill="#d05346" stroke="#d05346"></path><path d="M814.5 407.3L860.8 302.7L770.8 324.3Z" fill="#a3382d" stroke="#a3382d"></path><path d="M615.8 600L707.3 600L634.8 575.3Z" fill="#e05c4f" stroke="#e05c4f"></path><path d="M719.3 607.3L707.3 600L615.8 600Z" fill="#e05c4f" stroke="#e05c4f"></path><path d="M860.8 302.7L858.8 259L761.5 291.7Z" fill="#791e16" stroke="#791e16"></path><path d="M756.5 0L698.3 0L678.3 25.7Z" fill="#d05346" stroke="#d05346"></path><path d="M678.3 25.7L698.3 0L630.1 0Z" fill="#ff6f61" stroke="#ff6f61"></path><path d="M793.5 76.3L678.3 25.7L778.5 148.7Z" fill="#87271d" stroke="#87271d"></path><path d="M793.5 76.3L778.5 148.7L861.8 92.3Z" fill="#ef6658" stroke="#ef6658"></path><path d="M279.9 600L286.2 600L303.2 515.7Z" fill="#d05346" stroke="#d05346"></path><path d="M353.4 600L223.9 605.3L595.1 614.3Z" fill="#e05c4f" stroke="#e05c4f"></path><path d="M223.9 605.3L279.9 600L303.2 515.7Z" fill="#ef6658" stroke="#ef6658"></path><path d="M286.2 600L223.9 605.3L353.4 600Z" fill="#e05c4f" stroke="#e05c4f"></path><path d="M861.8 92.3L778.5 148.7L804.5 184Z" fill="#a3382d" stroke="#a3382d"></path><path d="M707.3 600L755.8 575.3L649.3 509.7Z" fill="#ff6f61" stroke="#ff6f61"></path><path d="M900 478.7L900 328L814.5 407.3Z" fill="#e05c4f" stroke="#e05c4f"></path><path d="M900 328L900 288.3L860.8 302.7Z" fill="#791e16" stroke="#791e16"></path><path d="M595.1 614.3L719.3 607.3L615.8 600Z" fill="#ef6658" stroke="#ef6658"></path><path d="M707.3 600L719.3 607.3L755.8 575.3Z" fill="#ff6f61" stroke="#ff6f61"></path><path d="M228.7 89.3L161.7 144L215.9 131.3Z" fill="#c14a3d" stroke="#c14a3d"></path><path d="M381.2 0L267.7 0L350.9 54.7Z" fill="#ef6658" stroke="#ef6658"></path><path d="M122.5 120.3L117.2 146.7L161.7 144Z" fill="#ff6f61" stroke="#ff6f61"></path><path d="M757.5 600L762.5 592.3L755.8 575.3Z" fill="#791e16" stroke="#791e16"></path><path d="M900 546.3L900 478.7L778.8 481.7Z" fill="#6b150e" stroke="#6b150e"></path><path d="M719.3 607.3L757.5 600L755.8 575.3Z" fill="#6b150e" stroke="#6b150e"></path><path d="M793.5 76.3L756.5 0L678.3 25.7Z" fill="#c14a3d" stroke="#c14a3d"></path><path d="M68.5 355L205.7 353L211.5 293.7Z" fill="#b24135" stroke="#b24135"></path><path d="M139.7 585.3L223.9 605.3L303.2 515.7Z" fill="#ff6f61" stroke="#ff6f61"></path><path d="M92.2 228.7L211.5 293.7L165.5 197Z" fill="#952f25" stroke="#952f25"></path><path d="M860.8 302.7L900 288.3L858.8 259Z" fill="#791e16" stroke="#791e16"></path><path d="M858.8 259L900 199L804.5 184Z" fill="#ff6f61" stroke="#ff6f61"></path><path d="M793.5 76.3L809.8 0L756.5 0Z" fill="#791e16" stroke="#791e16"></path><path d="M900 328L860.8 302.7L814.5 407.3Z" fill="#87271d" stroke="#87271d"></path><path d="M900 478.7L814.5 407.3L778.8 481.7Z" fill="#d05346" stroke="#d05346"></path><path d="M900 288.3L900 233.7L858.8 259Z" fill="#c14a3d" stroke="#c14a3d"></path><path d="M139.7 585.3L303.2 515.7L99.5 531.3Z" fill="#87271d" stroke="#87271d"></path><path d="M279.9 600L223.9 605.3L286.2 600Z" fill="#952f25" stroke="#952f25"></path><path d="M900 233.7L900 199L858.8 259Z" fill="#ef6658" stroke="#ef6658"></path><path d="M122.5 120.3L161.7 144L228.7 89.3Z" fill="#952f25" stroke="#952f25"></path><path d="M161.7 144L117.2 146.7L165.5 197Z" fill="#ff6f61" stroke="#ff6f61"></path><path d="M117.2 146.7L92.2 228.7L165.5 197Z" fill="#c14a3d" stroke="#c14a3d"></path><path d="M267.7 0L217.9 0L228.7 89.3Z" fill="#791e16" stroke="#791e16"></path><path d="M900 164.3L861.8 92.3L804.5 184Z" fill="#791e16" stroke="#791e16"></path><path d="M130.5 0L122.5 120.3L228.7 89.3Z" fill="#d05346" stroke="#d05346"></path><path d="M117.2 146.7L57.2 211.3L92.2 228.7Z" fill="#791e16" stroke="#791e16"></path><path d="M900 199L900 164.3L804.5 184Z" fill="#d05346" stroke="#d05346"></path><path d="M66.5 391.3L93.5 428.7L117.2 420Z" fill="#c14a3d" stroke="#c14a3d"></path><path d="M99.5 531.3L303.2 515.7L214.7 392.7Z" fill="#6b150e" stroke="#6b150e"></path><path d="M821.8 8.7L809.8 0L793.5 76.3Z" fill="#b24135" stroke="#b24135"></path><path d="M92.2 228.7L68.5 355L211.5 293.7Z" fill="#ef6658" stroke="#ef6658"></path><path d="M855.8 600L778.8 481.7L755.8 575.3Z" fill="#952f25" stroke="#952f25"></path><path d="M855.8 600L755.8 575.3L762.5 592.3Z" fill="#ef6658" stroke="#ef6658"></path><path d="M900 49.7L821.8 8.7L861.8 92.3Z" fill="#d05346" stroke="#d05346"></path><path d="M861.8 92.3L821.8 8.7L793.5 76.3Z" fill="#a3382d" stroke="#a3382d"></path><path d="M68.5 355L66.5 391.3L117.2 420Z" fill="#b24135" stroke="#b24135"></path><path d="M24.2 207L57.2 211.3L0 157.3Z" fill="#c14a3d" stroke="#c14a3d"></path><path d="M92.2 228.7L57.2 211.3L68.5 355Z" fill="#791e16" stroke="#791e16"></path><path d="M68.5 355L39.2 363.3L66.5 391.3Z" fill="#ff6f61" stroke="#ff6f61"></path><path d="M99.5 531.3L214.7 392.7L117.2 420Z" fill="#952f25" stroke="#952f25"></path><path d="M99.5 531.3L117.2 420L93.5 428.7Z" fill="#c14a3d" stroke="#c14a3d"></path><path d="M267.7 0L172.7 -16.3L217.9 0Z" fill="#e05c4f" stroke="#e05c4f"></path><path d="M217.9 0L130.5 0L228.7 89.3Z" fill="#ef6658" stroke="#ef6658"></path><path d="M0 157.3L57.2 211.3L117.2 146.7Z" fill="#c14a3d" stroke="#c14a3d"></path><path d="M381.2 0L172.7 -16.3L267.7 0Z" fill="#d05346" stroke="#d05346"></path><path d="M446.4 0L172.7 -16.3L381.2 0Z" fill="#e05c4f" stroke="#e05c4f"></path><path d="M514.8 0L172.7 -16.3L446.4 0Z" fill="#a3382d" stroke="#a3382d"></path><path d="M560.6 0L172.7 -16.3L514.8 0Z" fill="#ef6658" stroke="#ef6658"></path><path d="M630.1 0L172.7 -16.3L560.6 0Z" fill="#6b150e" stroke="#6b150e"></path><path d="M698.3 0L172.7 -16.3L630.1 0Z" fill="#ef6658" stroke="#ef6658"></path><path d="M756.5 0L172.7 -16.3L698.3 0Z" fill="#ef6658" stroke="#ef6658"></path><path d="M809.8 0L172.7 -16.3L756.5 0Z" fill="#d05346" stroke="#d05346"></path><path d="M44.2 538.3L99.5 531.3L93.5 428.7Z" fill="#87271d" stroke="#87271d"></path><path d="M719.3 607.3L855.8 600L757.5 600Z" fill="#c14a3d" stroke="#c14a3d"></path><path d="M757.5 600L855.8 600L762.5 592.3Z" fill="#6b150e" stroke="#6b150e"></path><path d="M900 600L855.8 600L719.3 607.3Z" fill="#6b150e" stroke="#6b150e"></path><path d="M0 352.3L39.2 363.3L68.5 355Z" fill="#87271d" stroke="#87271d"></path><path d="M66.5 391.3L29.2 393.7L93.5 428.7Z" fill="#b24135" stroke="#b24135"></path><path d="M855.8 600L900 546.3L778.8 481.7Z" fill="#952f25" stroke="#952f25"></path><path d="M111.5 600L137.7 600L139.7 585.3Z" fill="#6b150e" stroke="#6b150e"></path><path d="M139.7 585.3L137.7 600L223.9 605.3Z" fill="#b24135" stroke="#b24135"></path><path d="M821.8 8.7L900 0L809.8 0Z" fill="#a3382d" stroke="#a3382d"></path><path d="M900 164.3L900 49.7L861.8 92.3Z" fill="#952f25" stroke="#952f25"></path><path d="M172.7 -16.3L130.5 0L217.9 0Z" fill="#e05c4f" stroke="#e05c4f"></path><path d="M0 352.3L29.2 393.7L39.2 363.3Z" fill="#a3382d" stroke="#a3382d"></path><path d="M39.2 363.3L29.2 393.7L66.5 391.3Z" fill="#b24135" stroke="#b24135"></path><path d="M0 203.7L24.2 207L0 157.3Z" fill="#e05c4f" stroke="#e05c4f"></path><path d="M57.2 211.3L0 352.3L68.5 355Z" fill="#791e16" stroke="#791e16"></path><path d="M44.2 538.3L111.5 600L99.5 531.3Z" fill="#c14a3d" stroke="#c14a3d"></path><path d="M99.5 531.3L111.5 600L139.7 585.3Z" fill="#ef6658" stroke="#ef6658"></path><path d="M137.7 600L111.5 600L223.9 605.3Z" fill="#ef6658" stroke="#ef6658"></path><path d="M172.7 -16.3L109.5 0.7L130.5 0Z" fill="#a3382d" stroke="#a3382d"></path><path d="M130.5 0L109.5 0.7L122.5 120.3Z" fill="#a3382d" stroke="#a3382d"></path><path d="M595.1 614.3L900 600L719.3 607.3Z" fill="#791e16" stroke="#791e16"></path><path d="M855.8 600L900 600L900 546.3Z" fill="#d05346" stroke="#d05346"></path><path d="M24.2 207L0 352.3L57.2 211.3Z" fill="#d05346" stroke="#d05346"></path><path d="M0 450L44.2 538.3L93.5 428.7Z" fill="#b24135" stroke="#b24135"></path><path d="M900 49.7L900 0L821.8 8.7Z" fill="#d05346" stroke="#d05346"></path><path d="M809.8 0L900 0L172.7 -16.3Z" fill="#952f25" stroke="#952f25"></path><path d="M0 157.3L117.2 146.7L0 144Z" fill="#a3382d" stroke="#a3382d"></path><path d="M24.2 207L0 203.7L0 352.3Z" fill="#c14a3d" stroke="#c14a3d"></path><path d="M0 450L93.5 428.7L29.2 393.7Z" fill="#6b150e" stroke="#6b150e"></path><path d="M0 352.3L0 450L29.2 393.7Z" fill="#952f25" stroke="#952f25"></path><path d="M0 144L117.2 146.7L0 135.7Z" fill="#a3382d" stroke="#a3382d"></path><path d="M0 135.7L117.2 146.7L122.5 120.3Z" fill="#c14a3d" stroke="#c14a3d"></path><path d="M56.2 0L0 135.7L122.5 120.3Z" fill="#87271d" stroke="#87271d"></path><path d="M172.7 -16.3L56.2 0L109.5 0.7Z" fill="#e05c4f" stroke="#e05c4f"></path><path d="M109.5 0.7L56.2 0L122.5 120.3Z" fill="#a3382d" stroke="#a3382d"></path><path d="M0 450L0 534.3L44.2 538.3Z" fill="#ff6f61" stroke="#ff6f61"></path><path d="M44.2 538.3L0 600L111.5 600Z" fill="#e05c4f" stroke="#e05c4f"></path><path d="M0 534.3L0 549.7L44.2 538.3Z" fill="#6b150e" stroke="#6b150e"></path><path d="M0 549.7L0 600L44.2 538.3Z" fill="#6b150e" stroke="#6b150e"></path><path d="M111.5 600L0 600L223.9 605.3Z" fill="#6b150e" stroke="#6b150e"></path><path d="M223.9 605.3L-15.8 600L595.1 614.3Z" fill="#b24135" stroke="#b24135"></path><path d="M172.7 -16.3L0 0L56.2 0Z" fill="#ff6f61" stroke="#ff6f61"></path><path d="M56.2 0L0 0L0 135.7Z" fill="#ef6658" stroke="#ef6658"></path><path d="M0 549.7L-15.8 600L0 600Z" fill="#d05346" stroke="#d05346"></path><path d="M0 600L-15.8 600L223.9 605.3Z" fill="#b24135" stroke="#b24135"></path><path d="M0 534.3L-15.8 600L0 549.7Z" fill="#ef6658" stroke="#ef6658"></path><path d="M0 450L-15.8 600L0 534.3Z" fill="#ff6f61" stroke="#ff6f61"></path><path d="M0 352.3L-15.8 600L0 450Z" fill="#a3382d" stroke="#a3382d"></path><path d="M0 203.7L-15.8 600L0 352.3Z" fill="#b24135" stroke="#b24135"></path><path d="M0 157.3L-15.8 600L0 203.7Z" fill="#d05346" stroke="#d05346"></path><path d="M0 144L-15.8 600L0 157.3Z" fill="#952f25" stroke="#952f25"></path><path d="M0 135.7L-15.8 600L0 144Z" fill="#ef6658" stroke="#ef6658"></path><path d="M0 0L-15.8 600L0 135.7Z" fill="#c14a3d" stroke="#c14a3d"></path></g></svg>